<svg xmlns="http://www.w3.org/2000/svg" width="64" height="64" viewBox="0 0 64 64"><path d="M57.363 14.317c-1.388-1.893-3.323-4.106-5.449-6.231s-4.338-4.06-6.231-5.449C42.46.273 40.896 0 40 0H9C6.243 0 4 2.243 4 5v54c0 2.757 2.243 5 5 5h46c2.757 0 5-2.243 5-5V20c0-.896-.273-2.459-2.637-5.683zm-8.277-3.403c1.919 1.919 3.425 3.65 4.536 5.086H44V6.378c1.437 1.111 3.167 2.617 5.086 4.536zM56 59c0 .542-.458 1-1 1H9c-.542 0-1-.458-1-1V5c0-.542.458-1 1-1h31v14a2 2 0 0 0 2 2h14v39z"/><path d="M46 52H18a2 2 0 1 1 0-4h28a2 2 0 1 1 0 4zM46 44H18a2 2 0 1 1 0-4h28a2 2 0 1 1 0 4zM46 36H18a2 2 0 1 1 0-4h28a2 2 0 1 1 0 4z"/></svg>