<svg xmlns="http://www.w3.org/2000/svg" width="64" height="64" viewBox="0 0 64 64"><path d="M32 0C14.327 0 0 14.327 0 32s14.327 32 32 32 32-14.327 32-32S49.673 0 32 0zM20 32c0-6.628 5.372-12 12-12s12 5.372 12 12-5.373 12-12 12-12-5.373-12-12zm37.874 10.717l-11.089-4.593C47.567 36.238 48 34.169 48 32s-.433-4.238-1.215-6.124l11.089-4.593C59.243 24.584 60 28.204 60 32s-.757 7.416-2.126 10.717zM42.717 6.126l-4.593 11.089C36.238 16.433 34.169 16 32 16s-4.238.433-6.124 1.215L21.283 6.126C24.584 4.757 28.204 4 32 4s7.416.757 10.717 2.126zM6.126 21.283l11.089 4.593C16.433 27.763 16 29.831 16 32s.433 4.238 1.215 6.124L6.126 42.717C4.757 39.416 4 35.796 4 32s.757-7.416 2.126-10.717zm15.157 36.591l4.593-11.089C27.763 47.567 29.831 48 32 48s4.238-.433 6.124-1.215l4.593 11.089C39.416 59.243 35.796 60 32 60s-7.416-.757-10.717-2.126z"/></svg>