<svg xmlns="http://www.w3.org/2000/svg" width="64" height="64" viewBox="0 0 64 64"><path d="M30.998 64c-3.085 0-5.695-.9-7.756-2.676-2.076-1.788-3.129-3.877-3.129-6.209 0-1.133.413-2.11 1.226-2.904.827-.807 1.861-1.234 2.991-1.234 1.125 0 2.137.401 2.927 1.159.779.748 1.175 1.739 1.175 2.944 0 .707-.116 1.489-.343 2.322-.226.824-.273 1.246-.273 1.456 0 .23.058.505.486.797.797.551 1.754.818 2.93.818 1.411 0 2.67-.491 3.848-1.501 1.161-.996 1.726-2.02 1.726-3.129 0-1.233-.329-2.302-1.008-3.265-1.146-1.61-3.305-3.497-6.413-5.604-4.991-3.341-8.317-6.235-10.161-8.845-1.431-2.043-2.155-4.243-2.155-6.544 0-2.316.759-4.622 2.256-6.852 1.282-1.91 3.175-3.633 5.639-5.134-1.319-1.419-2.306-2.754-2.943-3.98-.805-1.547-1.212-3.148-1.212-4.758 0-2.988 1.182-5.572 3.513-7.681C26.654 1.07 29.563 0 32.967 0c3.13 0 5.763.88 7.824 2.616 2.083 1.755 3.139 3.806 3.139 6.096 0 1.166-.437 2.21-1.298 3.104l-.017.018c-.498.495-1.414 1.086-2.94 1.086-1.197 0-2.246-.392-3.034-1.133-.785-.737-1.183-1.62-1.183-2.623 0-.433.106-1.088.334-2.061.111-.46.167-.884.167-1.266 0-.646-.233-1.142-.733-1.56-.518-.433-1.257-.644-2.259-.644-1.554 0-2.83.473-3.901 1.445-1.074.975-1.596 2.13-1.596 3.532 0 1.26.285 2.298.849 3.085 1.07 1.496 2.925 3.112 5.514 4.802 5.261 3.412 8.931 6.542 10.907 9.302 1.459 2.07 2.197 4.271 2.197 6.55 0 2.287-.743 4.593-2.207 6.855-1.263 1.949-3.17 3.705-5.68 5.232 1.386 1.467 2.363 2.753 2.972 3.909a9.906 9.906 0 0 1 1.138 4.659c0 3.104-1.183 5.741-3.515 7.839-2.334 2.097-5.242 3.16-8.643 3.16zm-3.097-41.728c-3.014 1.809-4.482 3.887-4.482 6.332 0 1.422.406 2.696 1.241 3.892 1.246 1.745 3.704 3.878 7.3 6.331a67.332 67.332 0 0 1 4.099 3.004c3.066-1.844 4.56-3.898 4.56-6.261 0-1.287-.509-2.673-1.513-4.12-1.05-1.512-3.303-3.487-6.696-5.87-1.77-1.223-3.285-2.333-4.511-3.308z"/></svg>