<svg xmlns="http://www.w3.org/2000/svg" width="64" height="64" viewBox="0 0 64 64"><path d="M32 0C14.327 0 0 14.327 0 32s14.327 32 32 32 32-14.327 32-32S49.673 0 32 0zm0 16c8.837 0 16 7.163 16 16s-7.163 16-16 16-16-7.163-16-16 7.163-16 16-16zm19.092 35.092C45.992 56.192 39.212 59 32 59s-13.992-2.809-19.092-7.908S5 39.212 5 32c0-7.212 2.809-13.992 7.908-19.092l4.243 4.243c-8.188 8.188-8.188 21.511 0 29.698C21.117 50.815 26.391 53 32 53s10.883-2.184 14.849-6.151c8.188-8.188 8.188-21.511 0-29.698l4.243-4.243C56.192 18.008 59 24.788 59 32s-2.809 13.992-7.908 19.092z"/></svg>